<svg width="97" height="26" viewBox="0 0 97 26" fill="none" xmlns="http://www.w3.org/2000/svg">
<path d="M41.405 13.1181C42.1539 12.8181 42.7188 12.3685 43.1011 11.7672C43.4834 11.167 43.6733 10.3861 43.6733 9.42555C43.6733 8.08903 43.1937 7.06585 42.2356 6.3524C41.2775 5.64016 39.7425 5.28223 37.6316 5.28223H31.4998V21.3361H37.9009C39.9673 21.3361 41.4975 20.9384 42.494 20.143C43.4894 19.3476 43.987 18.222 43.987 16.7661C43.987 15.7755 43.7659 14.9909 43.3247 14.4137C42.8835 13.8352 42.2428 13.4038 41.405 13.1181ZM34.3751 7.66964H37.7218C38.8 7.66964 39.5778 7.83836 40.0574 8.1758C40.5358 8.51324 40.7763 9.03508 40.7763 9.7413C40.7763 10.5066 40.5178 11.0621 40.0009 11.408C39.484 11.7539 38.7315 11.9262 37.7434 11.9262H34.3739V7.66964H34.3751ZM40.192 18.2292C39.6679 18.6197 38.7772 18.8137 37.5198 18.8137H34.3751V14.31H37.5643C38.7171 14.31 39.5742 14.4824 40.1356 14.8283C40.6969 15.1741 40.9782 15.7369 40.9782 16.5167C40.9782 17.2687 40.7162 17.8399 40.192 18.2292Z" fill="white"/>
<path d="M50.2427 9.05442C49.5467 9.57264 49.0707 10.3644 48.8159 11.4298L48.4336 8.39038H46.0535V21.3374H48.9505V15.3477C48.9505 14.3426 49.0515 13.5424 49.2534 12.9495C49.4554 12.3565 49.8256 11.9323 50.3654 11.6768C50.6346 11.5419 50.964 11.4406 51.3535 11.3731C51.7429 11.3057 52.1925 11.2719 52.701 11.2719H53.9812V8.2771H53.1049C51.8932 8.2771 50.9387 8.53621 50.2427 9.05442Z" fill="white"/>
<path d="M66.3338 10.0788C65.8253 9.46414 65.169 8.97485 64.3684 8.61571C63.5678 8.25537 62.6121 8.07581 61.505 8.07581C60.1575 8.07581 58.9927 8.3542 58.013 8.90857C57.0321 9.46414 56.2723 10.2451 55.7326 11.2502C55.4633 11.76 55.2614 12.3119 55.1268 12.9049C54.9921 13.4978 54.9248 14.1401 54.9248 14.8295V15.1452C54.9248 17.141 55.4633 18.7294 56.5416 19.9068C57.6199 21.0854 59.2439 21.6748 61.4149 21.6748C63.1062 21.6748 64.473 21.3072 65.514 20.5708C66.555 19.8357 67.2618 18.8149 67.6368 17.5085H64.4706C64.2458 18.0641 63.8936 18.492 63.4151 18.792C62.9355 19.0921 62.3068 19.2428 61.5291 19.2428C60.4664 19.2428 59.6165 18.9583 58.9794 18.3871C58.3435 17.8171 57.9649 17.006 57.8459 15.9551H67.8172V14.5812C67.8172 13.7557 67.6969 12.9531 67.4577 12.1721C67.2173 11.3924 66.8435 10.6946 66.3338 10.0788ZM57.8675 13.6364C58.0322 12.6156 58.4289 11.8238 59.0576 11.261C59.6863 10.6982 60.5097 10.4162 61.5279 10.4162C62.5604 10.4162 63.3502 10.7055 63.8972 11.2827C64.4429 11.8612 64.7687 12.6445 64.8745 13.6352H57.8675V13.6364Z" fill="white"/>
<path d="M79.1805 8.63751C78.761 8.44228 78.2741 8.30007 77.7212 8.20968C77.167 8.1193 76.5383 8.07471 75.8351 8.07471C73.9935 8.07471 72.5486 8.52182 71.5004 9.41484C70.4521 10.3079 69.8751 11.4901 69.7706 12.9616H72.8022C72.8467 12.1361 73.1244 11.4986 73.6329 11.0478C74.1413 10.5983 74.9275 10.3729 75.9914 10.3729C76.9939 10.3729 77.6983 10.5308 78.1022 10.8454C78.5061 11.1599 78.7081 11.5889 78.7081 12.1288C78.7081 12.6543 78.4568 13.0255 77.9556 13.2436C77.4531 13.4617 76.6261 13.6449 75.4733 13.7956C74.6643 13.9161 73.9983 14.0282 73.4742 14.133C72.9501 14.2379 72.5005 14.3584 72.1266 14.4934C71.9475 14.5536 71.7636 14.6283 71.5761 14.7187C71.3886 14.8091 71.2058 14.914 71.0255 15.0345C70.5014 15.3647 70.0891 15.7961 69.7898 16.3288C69.4905 16.8615 69.3402 17.4882 69.3402 18.2089C69.3402 19.2597 69.696 20.0997 70.4065 20.7312C71.1169 21.3615 72.1699 21.6773 73.5619 21.6773C74.8951 21.6773 75.9986 21.3989 76.8749 20.8445C77.7512 20.2889 78.4052 19.5912 78.8403 18.75L79.1553 21.3398H81.5354V12.6037C81.5354 11.6733 81.3515 10.8695 80.9848 10.1946C80.6218 9.51607 80.0196 8.99786 79.1805 8.63751ZM78.7309 15.4828C78.7309 16.0986 78.5626 16.7096 78.226 17.3182C77.8895 17.9256 77.4062 18.4258 76.7775 18.815C76.4626 19.0103 76.1224 19.1573 75.7558 19.2537C75.3891 19.3513 74.996 19.3995 74.5765 19.3995C73.9021 19.3995 73.3973 19.2646 73.0607 18.9946C72.7241 18.7247 72.5558 18.3197 72.5558 17.7786C72.5558 17.4942 72.6195 17.2387 72.7469 17.0133C72.8743 16.788 73.0643 16.5927 73.3191 16.4276C73.6184 16.2324 73.967 16.0793 74.3637 15.9661C74.7604 15.854 75.3482 15.7371 76.1272 15.6178C76.7114 15.5274 77.2235 15.4153 77.6659 15.2803C78.107 15.1453 78.4628 14.9802 78.7321 14.785V15.4828H78.7309Z" fill="white"/>
<path d="M93.5536 4V10.6199C93.1786 9.82451 92.6364 9.20506 91.9248 8.76277C91.2131 8.32048 90.326 8.09873 89.2634 8.09873C88.1707 8.09873 87.2042 8.34579 86.3663 8.8411C85.5273 9.33642 84.8757 10.0643 84.4117 11.0248C84.1725 11.5057 83.9922 12.0456 83.8732 12.6458C83.753 13.2459 83.6941 13.8991 83.6941 14.6042V14.9199C83.6941 17.0964 84.1954 18.7547 85.1991 19.896C86.2016 21.0373 87.5275 21.6073 89.1744 21.6073C90.3272 21.6073 91.2744 21.3301 92.0149 20.7745C92.7566 20.219 93.2988 19.5055 93.6438 18.6354L93.9587 21.3374H96.4062V4H93.5536ZM93.6209 14.897C93.6209 16.1733 93.3024 17.1868 92.6665 17.9364C92.0294 18.6872 91.1651 19.062 90.0724 19.062C89.0987 19.062 88.2981 18.7125 87.6694 18.0147C87.0407 17.317 86.7257 16.2781 86.7257 14.8958V14.6487C86.7257 13.358 87.0251 12.3517 87.6237 11.631C88.2224 10.9104 89.0758 10.55 90.1842 10.55C91.2468 10.55 92.0859 10.9248 92.7001 11.6756C93.3144 12.4264 93.6209 13.4243 93.6209 14.6704V14.897Z" fill="white"/>
<path d="M11.9559 0C8.46744 0 5.97792 1.04607 5.97792 2.1042C5.97792 2.52118 6.2544 2.73329 6.70639 2.85381C7.68489 3.11532 14.9431 5.04719 15.4215 5.19542C15.9985 5.37378 18.9076 6.13182 18.9136 9.07963L18.9052 9.0724C18.9052 9.0724 4.86359 5.25327 3.87547 5.03513C3.19629 4.8857 2.67459 5.01947 2.31997 5.37499C1.46048 6.23667 0.40625 10.2077 0.40625 13.0349C0.40625 20.5611 4.99101 26 11.9487 26C15.4371 26 17.9267 24.9539 17.9267 23.8958C17.9267 23.4788 17.6502 23.2667 17.1982 23.1462C16.2197 22.8847 8.96871 20.9299 8.48307 20.8046C7.99743 20.6804 4.98981 19.867 4.98981 16.9107L20.0279 20.9649C20.7071 21.1143 21.2288 20.9805 21.5834 20.625C22.4441 19.7621 23.4983 15.7911 23.4983 12.965C23.4983 5.43886 18.9136 0 11.9559 0ZM8.48307 13.5459C8.03349 13.4278 4.99101 12.5987 4.99101 9.65329C4.99101 9.65329 15.0873 12.3697 15.4371 12.4589C15.787 12.5481 18.9136 13.423 18.9136 16.3479C18.9136 16.3467 8.93265 13.664 8.48307 13.5459Z" fill="#5156EA"/>
</svg>
